<?xml version="1.0" standalone="no"?>
<!DOCTYPE svg PUBLIC "-//W3C//DTD SVG 20010904//EN"
 "http://www.w3.org/TR/2001/REC-SVG-20010904/DTD/svg10.dtd">
<svg version="1.0" xmlns="http://www.w3.org/2000/svg"
 width="1024.000000pt" height="1024.000000pt" viewBox="0 0 1024.000000 1024.000000"
 preserveAspectRatio="xMidYMid meet">

<g transform="translate(0.000000,1024.000000) scale(0.100000,-0.100000)"
fill="#000000" stroke="none">
<path d="M0 5120 l0 -5120 5120 0 5120 0 0 5120 0 5120 -5120 0 -5120 0 0
-5120z m5610 2755 c673 -96 1256 -407 1703 -910 49 -55 93 -108 98 -117 8 -14
-5 -26 -78 -69 -202 -119 -223 -139 -299 -275 -65 -118 -144 -195 -287 -280
-183 -110 -208 -132 -283 -246 -79 -121 -183 -232 -268 -287 -71 -46 -116 -61
-116 -38 0 8 -16 50 -36 93 -77 168 -97 345 -54 459 51 134 266 279 553 374
115 39 120 51 37 94 -106 54 -299 67 -477 33 -66 -12 -76 -12 -129 6 -31 11
-91 23 -133 28 -294 33 -551 -135 -681 -446 -31 -76 -62 -199 -100 -404 -11
-63 -26 -120 -32 -127 -17 -21 -85 -15 -156 14 -134 53 -200 100 -357 258
l-150 150 -150 79 c-249 132 -308 179 -433 348 -81 110 -105 128 -303 232 -79
42 -162 85 -185 97 -81 43 -81 42 -41 91 77 92 220 222 372 336 363 271 855
463 1310 511 55 6 116 13 135 15 76 9 431 -4 540 -19z m-3283 -366 c330 -323
649 -572 1005 -784 177 -106 228 -148 254 -211 19 -46 17 -71 -5 -83 -23 -13
-77 4 -326 102 -395 155 -757 372 -929 558 -117 126 -156 221 -156 374 0 78 3
96 21 119 13 17 25 23 34 18 8 -4 54 -46 102 -93z m6037 -85 c24 -23 31 -60
30 -154 -2 -105 -26 -178 -90 -272 -99 -145 -338 -327 -632 -480 -219 -114
-431 -195 -465 -176 -47 25 21 155 114 221 394 277 564 420 845 711 88 91 165
166 171 166 6 0 19 -7 27 -16z m-6087 -662 c137 -110 367 -242 580 -333 138
-60 435 -159 563 -189 52 -13 112 -27 132 -32 40 -9 73 -51 84 -108 10 -45 -6
-51 -111 -45 -371 24 -798 128 -1074 262 -179 88 -275 195 -302 339 -18 95 -1
164 40 164 9 0 48 -26 88 -58z m6171 -106 c4 -69 -20 -165 -55 -225 -131 -224
-627 -420 -1153 -457 -82 -6 -97 -4 -109 10 -12 14 -11 24 10 67 26 57 33 62
109 78 30 6 126 34 213 62 241 78 524 224 725 375 40 30 77 52 83 49 5 -4 8
-2 7 4 -2 6 26 36 61 66 59 50 67 54 85 41 16 -10 22 -26 24 -70z m-2575 -124
c24 -22 22 -76 -5 -102 -45 -42 -118 -8 -118 55 0 64 72 92 123 47z m-3600
-481 c291 -141 695 -214 1182 -213 146 1 214 -3 224 -11 20 -17 61 -84 61
-102 0 -22 -48 -42 -162 -70 -182 -43 -293 -56 -548 -62 -349 -8 -528 17 -695
97 -124 58 -181 124 -211 239 -23 91 -8 171 33 171 7 0 60 -22 116 -49z m6153
-25 c16 -13 19 -26 17 -96 -1 -70 -6 -92 -32 -145 -42 -85 -118 -154 -213
-193 -127 -53 -200 -64 -458 -69 -202 -4 -256 -2 -385 16 -147 20 -278 50
-322 73 -34 17 -29 57 10 103 l33 38 135 4 c457 12 779 79 1054 219 66 34 125
62 131 63 5 0 19 -5 30 -13z m-4514 -540 c10 -7 21 -27 24 -43 8 -41 -30 -83
-144 -161 -265 -181 -586 -281 -904 -282 -118 0 -138 -9 -138 -58 0 -36 21
-65 73 -101 62 -42 136 -61 244 -61 168 0 329 46 543 157 150 77 268 159 394
276 98 90 123 102 158 70 55 -49 -20 -168 -209 -331 -189 -163 -410 -273 -643
-321 -50 -10 -94 -21 -97 -25 -14 -14 19 -56 62 -82 129 -75 290 -64 482 35
171 88 348 239 462 395 94 127 111 146 134 146 73 -1 78 -76 14 -190 -136
-244 -396 -471 -625 -545 -65 -21 -75 -39 -36 -71 100 -81 288 -69 435 29 68
45 200 181 263 270 27 38 74 118 105 179 62 124 82 144 121 125 23 -12 25 -18
24 -77 -1 -82 -40 -180 -123 -305 -83 -127 -157 -212 -244 -281 -42 -32 -76
-64 -76 -70 -1 -17 71 -25 129 -14 126 24 235 97 383 258 41 44 64 52 73 27 6
-15 -49 -103 -183 -292 -32 -45 -101 -143 -153 -218 -236 -338 -424 -604 -457
-649 -71 -98 -79 -167 -25 -218 27 -26 44 -31 91 -29 21 1 66 41 125 112 18
21 25 23 45 10 16 -10 15 -16 -29 -136 -45 -123 -5 -215 92 -215 64 0 107 37
137 121 20 53 25 60 44 55 12 -3 28 -6 35 -6 11 0 12 -14 7 -64 -9 -83 6 -129
49 -156 60 -36 133 -20 175 39 12 17 25 59 32 102 19 125 16 119 48 119 22 0
34 -9 55 -40 36 -55 68 -66 123 -45 83 32 86 53 57 442 -14 180 -26 380 -27
443 -2 111 -1 114 22 126 13 7 32 9 41 6 10 -4 59 -63 110 -132 51 -69 117
-155 146 -191 30 -36 54 -69 54 -72 0 -4 -20 -25 -45 -48 -53 -49 -85 -111
-85 -166 0 -47 20 -73 54 -73 30 0 52 25 65 76 13 49 50 89 97 104 29 10 40 9
71 -7 55 -29 78 -65 79 -126 1 -74 2 -75 24 -87 75 -40 120 108 65 212 -14 26
-25 52 -25 58 0 18 63 50 98 50 82 0 137 -67 134 -164 -1 -68 9 -86 48 -86 42
0 64 32 68 104 3 49 -1 74 -18 115 -37 85 -128 150 -211 151 -19 1 -42 25
-106 115 -46 62 -83 119 -83 125 0 7 30 47 68 89 177 203 325 409 396 549 14
28 30 52 35 52 5 0 29 -37 53 -81 59 -113 159 -219 246 -261 60 -30 75 -33
157 -33 79 0 97 4 148 28 64 32 72 53 26 69 -145 50 -311 203 -394 363 -70
134 -81 230 -29 254 40 18 55 7 101 -72 54 -92 157 -220 220 -273 192 -162
367 -204 526 -126 108 54 130 101 54 117 -74 16 -227 70 -297 105 -147 74
-302 212 -374 333 -45 77 -48 126 -10 156 15 12 33 21 40 21 7 0 61 -49 121
-108 256 -256 586 -392 825 -341 145 31 253 123 219 187 -9 17 -25 20 -148 25
-243 10 -432 64 -629 182 -50 30 -117 78 -148 108 -48 46 -56 58 -56 90 0 42
28 77 60 77 11 0 37 -11 58 -24 129 -81 333 -161 506 -198 143 -30 348 -29
461 2 44 13 91 23 105 24 25 1 25 0 26 -74 3 -452 -146 -953 -412 -1390 -134
-220 -317 -436 -529 -622 -396 -349 -889 -581 -1405 -663 -142 -23 -563 -32
-713 -15 -191 21 -381 63 -567 126 -121 42 -425 187 -552 265 -295 180 -609
473 -814 759 -244 340 -420 770 -484 1188 -20 126 -38 456 -27 484 4 13 16 12
74 -8 102 -34 243 -46 408 -35 288 20 527 89 800 229 87 45 101 48 127 28z
m1566 -1527 c-14 -40 2 -75 85 -181 34 -44 73 -96 86 -115 l24 -34 -35 -36
c-30 -30 -40 -34 -66 -28 -25 5 -46 28 -109 118 -128 183 -120 160 -77 213 30
36 91 93 101 94 1 0 -3 -14 -9 -31z"/>
<path d="M3225 3995 c-32 -31 -32 -66 -1 -102 l24 -28 147 0 147 0 24 28 c13
15 24 37 24 48 0 23 -18 61 -34 71 -6 4 -78 8 -159 8 -144 0 -149 -1 -172 -25z"/>
<path d="M6936 4004 c-25 -24 -31 -64 -15 -93 26 -45 52 -52 196 -49 122 3
134 5 155 25 31 31 30 89 -1 114 -20 17 -42 19 -171 19 -122 0 -151 -3 -164
-16z"/>
<path d="M3337 3651 c-92 -5 -111 -9 -123 -25 -17 -23 -18 -69 -3 -98 23 -44
59 -48 389 -48 324 0 356 4 390 44 21 26 18 83 -5 105 -18 17 -43 19 -280 24
-143 2 -309 1 -368 -2z"/>
<path d="M6637 3651 c-310 -6 -329 -7 -343 -25 -23 -33 -18 -89 12 -117 l26
-24 426 -3 c235 -2 442 0 461 3 42 8 81 49 81 86 0 15 -10 40 -22 54 -23 26
-26 26 -168 29 -80 2 -293 0 -473 -3z"/>
</g>
</svg>
